<?xml version="1.0" standalone="no"?>
<!DOCTYPE svg PUBLIC "-//W3C//DTD SVG 20010904//EN"
    "http://www.w3.org/TR/2001/REC-SVG-20010904/DTD/svg10.dtd">
<svg version="1.0" xmlns="http://www.w3.org/2000/svg"
     width="522.000000pt" height="175.000000pt" viewBox="0 0 522.000000 175.000000"
     preserveAspectRatio="xMidYMid meet">

    <g transform="translate(0.000000,175.000000) scale(0.100000,-0.100000)"
       fill="#000000" stroke="none">
        <path d="M1017 1253 c-16 -27 -237 -719 -233 -730 3 -7 10 -13 15 -13 8 0 251
720 251 743 0 10 -28 9 -33 0z"/>
        <path d="M2740 1095 c0 -101 -1 -105 -19 -95 -26 13 -87 13 -114 -1 -44 -23
-78 -64 -92 -113 -30 -100 -10 -218 45 -271 27 -25 39 -30 83 -30 38 0 61 6
85 23 l32 23 26 -20 c60 -48 106 -9 85 73 -6 27 -11 134 -11 265 0 216 0 220
-22 235 -12 9 -39 16 -60 16 l-38 0 0 -105z m-17 -188 c15 -10 17 -27 15 -107
-3 -91 -4 -95 -30 -107 -54 -27 -83 18 -76 121 6 90 43 129 91 93z"/>
        <path d="M3567 1159 c-125 -29 -196 -121 -205 -266 -8 -118 30 -221 98 -268
64 -45 154 -52 303 -23 l57 11 0 128 c0 165 -3 169 -125 169 l-84 0 -7 -35
c-8 -45 6 -62 59 -70 l42 -6 -3 -55 c-3 -48 -7 -55 -28 -60 -61 -15 -132 15
-159 67 -22 41 -30 154 -16 206 17 62 68 103 129 103 26 0 67 -9 91 -20 24
-11 47 -20 52 -20 11 0 49 60 49 77 0 19 -68 50 -135 62 -66 12 -66 12 -118 0z"/>
        <path d="M565 1022 c-106 -73 -170 -124 -170 -134 0 -21 346 -261 359 -248 4
4 5 13 2 19 -4 6 -76 58 -161 116 -85 58 -155 109 -155 113 1 4 73 56 160 115
142 96 187 138 148 137 -7 -1 -89 -54 -183 -118z"/>
        <path d="M1070 1127 c0 -9 67 -62 155 -123 86 -59 158 -110 160 -114 2 -4 -70
-57 -160 -119 -117 -79 -163 -116 -159 -126 4 -8 8 -15 11 -15 13 0 363 247
363 256 0 11 -322 238 -355 250 -9 4 -15 0 -15 -9z"/>
        <path d="M2219 1010 c-55 -10 -100 -41 -123 -85 -17 -32 -21 -58 -21 -131 0
-82 3 -94 27 -132 16 -23 41 -48 57 -56 106 -55 241 -6 270 99 19 70 14 166
-12 216 -36 68 -114 103 -198 89z m77 -115 c17 -26 23 -141 10 -183 -15 -45
-75 -48 -95 -6 -17 38 -14 165 5 192 21 30 59 29 80 -3z"/>
        <path d="M1785 998 c-86 -47 -126 -166 -94 -283 34 -123 162 -169 282 -103 50
28 54 39 25 72 -23 27 -24 27 -60 12 -87 -37 -121 -10 -126 97 -3 85 11 121
51 125 21 3 29 -2 37 -23 5 -14 10 -37 10 -51 0 -21 5 -24 36 -24 57 0 74 14
74 64 0 49 -24 87 -70 111 -34 17 -136 19 -165 3z"/>
        <path d="M3030 987 c-66 -44 -98 -142 -81 -249 18 -107 71 -152 181 -153 115
0 177 44 136 97 -11 14 -19 16 -47 8 -40 -12 -99 -13 -115 -2 -13 8 -34 46
-34 61 0 7 38 11 109 11 l109 0 6 44 c12 80 -23 159 -84 191 -46 24 -140 19
-180 -8z m130 -77 c11 -11 20 -31 20 -45 0 -24 -3 -25 -55 -25 -60 0 -65 7
-44 54 10 22 23 30 52 35 4 0 16 -8 27 -19z"/>
        <path d="M3922 997 c-18 -8 -22 -16 -17 -31 4 -12 10 -88 14 -169 l6 -149 33
-29 c43 -39 103 -40 157 -3 l38 25 22 -21 c13 -12 38 -23 56 -23 27 -2 36 3
47 25 9 20 10 33 2 47 -6 11 -10 86 -10 174 0 152 0 155 -22 161 -30 8 -72 8
-92 0 -14 -5 -16 -28 -16 -145 0 -126 -2 -139 -19 -149 -30 -16 -59 -12 -71 9
-5 11 -10 74 -10 140 0 113 -1 121 -22 135 -26 18 -63 20 -96 3z"/>
        <path d="M4412 990 c-62 -38 -77 -125 -32 -183 11 -13 49 -37 84 -52 70 -30
88 -52 59 -73 -19 -13 -81 -9 -115 9 -31 17 -46 9 -59 -28 -15 -45 -2 -57 79
-74 139 -28 253 38 238 140 -8 55 -33 81 -113 117 -56 26 -74 38 -71 52 4 23
65 28 113 8 l36 -15 15 35 c8 20 13 42 11 48 -15 38 -191 49 -245 16z"/>
    </g>
</svg>
