<?xml version="1.0" encoding="UTF-8"?>
<svg xmlns="http://www.w3.org/2000/svg" xmlns:xlink="http://www.w3.org/1999/xlink" width="119px" height="40px" viewBox="0 0 119 40" version="1.1">
    <g id="surface1">
        <path style=" stroke:none;fill-rule:nonzero;fill:rgb(0%,0%,0%);fill-opacity:1;" d="M 23.167969 11.347656 C 22.800781 11.964844 17.769531 27.761719 17.859375 28.015625 C 17.925781 28.171875 18.085938 28.308594 18.199219 28.308594 C 18.382812 28.308594 23.917969 11.871094 23.917969 11.347656 C 23.917969 11.117188 23.28125 11.140625 23.167969 11.347656 Z M 23.167969 11.347656 "/>
        <path style=" stroke:none;fill-rule:nonzero;fill:rgb(0%,0%,0%);fill-opacity:1;" d="M 62.414062 14.953125 C 62.414062 17.261719 62.394531 17.351562 61.984375 17.125 C 61.390625 16.828125 60 16.828125 59.386719 17.144531 C 58.382812 17.671875 57.609375 18.605469 57.289062 19.726562 C 56.605469 22.007812 57.0625 24.703125 58.316406 25.914062 C 58.929688 26.484375 59.203125 26.597656 60.207031 26.597656 C 61.070312 26.597656 61.597656 26.460938 62.140625 26.074219 L 62.871094 25.546875 L 63.464844 26.003906 C 64.832031 27.101562 65.878906 26.210938 65.398438 24.339844 C 65.261719 23.722656 65.148438 21.277344 65.148438 18.289062 C 65.148438 13.355469 65.148438 13.265625 64.648438 12.921875 C 64.375 12.71875 63.757812 12.558594 63.28125 12.558594 L 62.414062 12.558594 Z M 62.027344 19.246094 C 62.371094 19.476562 62.414062 19.863281 62.371094 21.691406 C 62.300781 23.765625 62.277344 23.859375 61.6875 24.132812 C 60.457031 24.75 59.796875 23.722656 59.957031 21.371094 C 60.09375 19.316406 60.933594 18.425781 62.027344 19.246094 Z M 62.027344 19.246094 "/>
        <path style=" stroke:none;fill-rule:nonzero;fill:rgb(0%,0%,0%);fill-opacity:1;" d="M 81.253906 13.492188 C 78.40625 14.15625 76.789062 16.253906 76.585938 19.566406 C 76.402344 22.261719 77.269531 24.613281 78.816406 25.683594 C 80.273438 26.710938 82.324219 26.871094 85.71875 26.210938 L 87.019531 25.957031 L 87.019531 23.035156 C 87.019531 19.269531 86.949219 19.179688 84.171875 19.179688 L 82.257812 19.179688 L 82.097656 19.976562 C 81.914062 21.003906 82.234375 21.394531 83.441406 21.574219 L 84.398438 21.710938 L 84.328125 22.96875 C 84.261719 24.0625 84.171875 24.222656 83.691406 24.339844 C 82.300781 24.679688 80.683594 23.996094 80.070312 22.808594 C 79.570312 21.871094 79.386719 19.292969 79.707031 18.105469 C 80.09375 16.691406 81.253906 15.753906 82.644531 15.753906 C 83.234375 15.753906 84.171875 15.957031 84.71875 16.210938 C 85.261719 16.460938 85.789062 16.667969 85.902344 16.667969 C 86.152344 16.667969 87.019531 15.296875 87.019531 14.910156 C 87.019531 14.476562 85.46875 13.765625 83.941406 13.492188 C 82.4375 13.21875 82.4375 13.21875 81.253906 13.492188 Z M 81.253906 13.492188 "/>
        <path style=" stroke:none;fill-rule:nonzero;fill:rgb(0%,0%,0%);fill-opacity:1;" d="M 12.871094 16.621094 C 10.457031 18.289062 8.996094 19.453125 8.996094 19.679688 C 8.996094 20.160156 16.878906 25.640625 17.175781 25.34375 C 17.265625 25.25 17.289062 25.046875 17.222656 24.910156 C 17.128906 24.773438 15.488281 23.585938 13.554688 22.261719 C 11.617188 20.9375 10.023438 19.773438 10.023438 19.679688 C 10.046875 19.589844 11.6875 18.402344 13.667969 17.054688 C 16.902344 14.863281 17.925781 13.902344 17.039062 13.925781 C 16.878906 13.949219 15.011719 15.160156 12.871094 16.621094 Z M 12.871094 16.621094 "/>
        <path style=" stroke:none;fill-rule:nonzero;fill:rgb(0%,0%,0%);fill-opacity:1;" d="M 24.375 14.222656 C 24.375 14.429688 25.898438 15.640625 27.90625 17.03125 C 29.863281 18.378906 31.503906 19.542969 31.550781 19.632812 C 31.59375 19.726562 29.953125 20.9375 27.90625 22.351562 C 25.238281 24.15625 24.191406 25 24.28125 25.226562 C 24.375 25.410156 24.464844 25.570312 24.535156 25.570312 C 24.828125 25.570312 32.800781 19.929688 32.800781 19.726562 C 32.800781 19.476562 25.46875 14.292969 24.714844 14.019531 C 24.511719 13.925781 24.375 14.019531 24.375 14.222656 Z M 24.375 14.222656 "/>
        <path style=" stroke:none;fill-rule:nonzero;fill:rgb(0%,0%,0%);fill-opacity:1;" d="M 50.546875 16.894531 C 49.292969 17.125 48.269531 17.832031 47.746094 18.835938 C 47.359375 19.566406 47.265625 20.160156 47.265625 21.828125 C 47.265625 23.699219 47.335938 23.972656 47.882812 24.839844 C 48.246094 25.367188 48.816406 25.9375 49.179688 26.117188 C 51.59375 27.375 54.671875 26.253906 55.332031 23.859375 C 55.765625 22.261719 55.648438 20.070312 55.058594 18.925781 C 54.238281 17.375 52.460938 16.574219 50.546875 16.894531 Z M 52.300781 19.519531 C 52.6875 20.113281 52.824219 22.738281 52.53125 23.699219 C 52.1875 24.726562 50.820312 24.792969 50.367188 23.835938 C 49.976562 22.96875 50.046875 20.070312 50.480469 19.453125 C 50.957031 18.765625 51.824219 18.789062 52.300781 19.519531 Z M 52.300781 19.519531 "/>
        <path style=" stroke:none;fill-rule:nonzero;fill:rgb(0%,0%,0%);fill-opacity:1;" d="M 40.660156 17.167969 C 38.703125 18.242188 37.792969 20.957031 38.519531 23.628906 C 39.292969 26.4375 42.210938 27.488281 44.945312 25.980469 C 46.082031 25.34375 46.175781 25.089844 45.511719 24.339844 C 44.988281 23.722656 44.964844 23.722656 44.148438 24.0625 C 42.164062 24.910156 41.390625 24.292969 41.277344 21.847656 C 41.207031 19.910156 41.527344 19.085938 42.4375 18.996094 C 42.917969 18.925781 43.097656 19.042969 43.28125 19.519531 C 43.394531 19.839844 43.507812 20.367188 43.507812 20.683594 C 43.507812 21.164062 43.621094 21.234375 44.328125 21.234375 C 45.628906 21.234375 46.015625 20.914062 46.015625 19.773438 C 46.015625 18.652344 45.46875 17.785156 44.421875 17.238281 C 43.644531 16.847656 41.320312 16.804688 40.660156 17.167969 Z M 40.660156 17.167969 "/>
        <path style=" stroke:none;fill-rule:nonzero;fill:rgb(0%,0%,0%);fill-opacity:1;" d="M 69.023438 17.421875 C 67.519531 18.425781 66.789062 20.660156 67.175781 23.105469 C 67.585938 25.546875 68.792969 26.574219 71.300781 26.597656 C 73.917969 26.597656 75.332031 25.59375 74.398438 24.382812 C 74.148438 24.0625 73.964844 24.019531 73.328125 24.199219 C 72.414062 24.476562 71.070312 24.496094 70.707031 24.246094 C 70.410156 24.0625 69.933594 23.195312 69.933594 22.855469 C 69.933594 22.695312 70.796875 22.601562 72.414062 22.601562 L 74.898438 22.601562 L 75.035156 21.597656 C 75.308594 19.773438 74.511719 17.96875 73.121094 17.238281 C 72.074219 16.691406 69.933594 16.804688 69.023438 17.421875 Z M 71.984375 19.179688 C 72.234375 19.429688 72.4375 19.886719 72.4375 20.207031 C 72.4375 20.753906 72.371094 20.777344 71.1875 20.777344 C 69.820312 20.777344 69.707031 20.617188 70.183594 19.542969 C 70.410156 19.042969 70.707031 18.859375 71.367188 18.746094 C 71.460938 18.746094 71.734375 18.925781 71.984375 19.179688 Z M 71.984375 19.179688 "/>
        <path style=" stroke:none;fill-rule:nonzero;fill:rgb(0%,0%,0%);fill-opacity:1;" d="M 89.339844 17.191406 C 88.929688 17.375 88.839844 17.558594 88.953125 17.898438 C 89.046875 18.171875 89.183594 19.910156 89.273438 21.757812 L 89.410156 25.160156 L 90.160156 25.820312 C 91.140625 26.710938 92.507812 26.734375 93.738281 25.890625 L 94.601562 25.320312 L 95.105469 25.800781 C 95.402344 26.074219 95.96875 26.324219 96.378906 26.324219 C 96.996094 26.371094 97.199219 26.253906 97.449219 25.753906 C 97.65625 25.296875 97.679688 25 97.496094 24.679688 C 97.359375 24.429688 97.269531 22.71875 97.269531 20.707031 C 97.269531 17.238281 97.269531 17.167969 96.765625 17.03125 C 96.082031 16.847656 95.128906 16.847656 94.671875 17.03125 C 94.351562 17.144531 94.308594 17.671875 94.308594 20.34375 C 94.308594 23.21875 94.261719 23.515625 93.875 23.746094 C 93.191406 24.109375 92.53125 24.019531 92.257812 23.539062 C 92.144531 23.289062 92.027344 21.847656 92.027344 20.34375 C 92.027344 17.761719 92.007812 17.578125 91.527344 17.261719 C 90.9375 16.847656 90.09375 16.804688 89.339844 17.191406 Z M 89.339844 17.191406 "/>
        <path style=" stroke:none;fill-rule:nonzero;fill:rgb(0%,0%,0%);fill-opacity:1;" d="M 100.503906 17.351562 C 99.089844 18.21875 98.75 20.207031 99.773438 21.53125 C 100.023438 21.828125 100.890625 22.375 101.6875 22.71875 C 103.28125 23.402344 103.691406 23.902344 103.03125 24.382812 C 102.597656 24.679688 101.1875 24.589844 100.410156 24.179688 C 99.707031 23.789062 99.363281 23.972656 99.066406 24.816406 C 98.726562 25.84375 99.023438 26.117188 100.867188 26.507812 C 104.035156 27.144531 106.628906 25.640625 106.289062 23.308594 C 106.105469 22.054688 105.539062 21.460938 103.714844 20.640625 C 102.4375 20.046875 102.027344 19.773438 102.097656 19.453125 C 102.1875 18.925781 103.578125 18.8125 104.671875 19.269531 L 105.492188 19.613281 L 105.832031 18.8125 C 106.015625 18.355469 106.128906 17.855469 106.085938 17.71875 C 105.742188 16.847656 101.734375 16.597656 100.503906 17.351562 Z M 100.503906 17.351562 "/>
    </g>
</svg>
